<mxfile host="app.diagrams.net" modified="2024-02-22T16:25:09.940Z" agent="Mozilla/5.0 (Windows NT 10.0; Win64; x64) AppleWebKit/537.36 (KHTML, like Gecko) Chrome/121.0.0.0 Safari/537.36" etag="U1Uf4pHcJldjFDNoVrbl" version="23.1.5" type="github">
  <diagram name="Page-1" id="DZ-Q3qOKiTGFnykEMMqB">
    <mxGraphModel dx="1050" dy="522" grid="1" gridSize="10" guides="1" tooltips="1" connect="1" arrows="1" fold="1" page="1" pageScale="1" pageWidth="850" pageHeight="1100" math="0" shadow="0">
      <root>
        <mxCell id="0" />
        <mxCell id="1" parent="0" />
        <mxCell id="XagqqqfC-4Mj_eRLT8K7-1" value="Supplier" style="swimlane;childLayout=stackLayout;horizontal=1;startSize=50;horizontalStack=0;rounded=1;fontSize=14;fontStyle=0;strokeWidth=2;resizeParent=0;resizeLast=1;shadow=0;dashed=0;align=center;arcSize=4;whiteSpace=wrap;html=1;" vertex="1" parent="1">
          <mxGeometry x="560" y="360" width="160" height="120" as="geometry" />
        </mxCell>
        <mxCell id="XagqqqfC-4Mj_eRLT8K7-2" value="SuppID (Primary Key)&lt;br&gt;Name&amp;nbsp;&lt;br&gt;ContactNo&lt;br&gt;Email" style="align=left;strokeColor=none;fillColor=none;spacingLeft=4;fontSize=12;verticalAlign=top;resizable=0;rotatable=0;part=1;html=1;" vertex="1" parent="XagqqqfC-4Mj_eRLT8K7-1">
          <mxGeometry y="50" width="160" height="70" as="geometry" />
        </mxCell>
        <mxCell id="XagqqqfC-4Mj_eRLT8K7-4" value="Laptop" style="swimlane;childLayout=stackLayout;horizontal=1;startSize=50;horizontalStack=0;rounded=1;fontSize=14;fontStyle=0;strokeWidth=2;resizeParent=0;resizeLast=1;shadow=0;dashed=0;align=center;arcSize=4;whiteSpace=wrap;html=1;" vertex="1" parent="1">
          <mxGeometry x="560" y="80" width="160" height="150" as="geometry" />
        </mxCell>
        <mxCell id="XagqqqfC-4Mj_eRLT8K7-5" value="SerialNo (Primary Key)&lt;br&gt;Brand&lt;br&gt;Model&lt;br&gt;Processor&lt;br&gt;Memory-Size&lt;br&gt;Disk-Size" style="align=left;strokeColor=none;fillColor=none;spacingLeft=4;fontSize=12;verticalAlign=top;resizable=0;rotatable=0;part=1;html=1;" vertex="1" parent="XagqqqfC-4Mj_eRLT8K7-4">
          <mxGeometry y="50" width="160" height="100" as="geometry" />
        </mxCell>
        <mxCell id="XagqqqfC-4Mj_eRLT8K7-6" value="Staff" style="swimlane;childLayout=stackLayout;horizontal=1;startSize=50;horizontalStack=0;rounded=1;fontSize=14;fontStyle=0;strokeWidth=2;resizeParent=0;resizeLast=1;shadow=0;dashed=0;align=center;arcSize=4;whiteSpace=wrap;html=1;" vertex="1" parent="1">
          <mxGeometry x="80" y="360" width="160" height="140" as="geometry" />
        </mxCell>
        <mxCell id="XagqqqfC-4Mj_eRLT8K7-7" value="StaffID (Primary Key)&lt;br&gt;StaffName&lt;br&gt;Contact-No&lt;br&gt;Department&lt;br&gt;Email" style="align=left;strokeColor=none;fillColor=none;spacingLeft=4;fontSize=12;verticalAlign=top;resizable=0;rotatable=0;part=1;html=1;" vertex="1" parent="XagqqqfC-4Mj_eRLT8K7-6">
          <mxGeometry y="50" width="160" height="90" as="geometry" />
        </mxCell>
        <mxCell id="XagqqqfC-4Mj_eRLT8K7-8" value="Assignment" style="swimlane;childLayout=stackLayout;horizontal=1;startSize=50;horizontalStack=0;rounded=1;fontSize=14;fontStyle=0;strokeWidth=2;resizeParent=0;resizeLast=1;shadow=0;dashed=0;align=center;arcSize=4;whiteSpace=wrap;html=1;" vertex="1" parent="1">
          <mxGeometry x="80" y="95" width="160" height="120" as="geometry" />
        </mxCell>
        <mxCell id="XagqqqfC-4Mj_eRLT8K7-9" value="AssignmentID (Primary Key)&lt;br&gt;StaffID (Foreign Key)&lt;br&gt;SerialNo (Foreign Key)&lt;br&gt;AssignmentDate" style="align=left;strokeColor=none;fillColor=none;spacingLeft=4;fontSize=12;verticalAlign=top;resizable=0;rotatable=0;part=1;html=1;" vertex="1" parent="XagqqqfC-4Mj_eRLT8K7-8">
          <mxGeometry y="50" width="160" height="70" as="geometry" />
        </mxCell>
        <mxCell id="XagqqqfC-4Mj_eRLT8K7-19" value="" style="fontSize=12;html=1;endArrow=ERoneToMany;startArrow=ERmandOne;rounded=0;entryX=0.5;entryY=1;entryDx=0;entryDy=0;exitX=0.5;exitY=0;exitDx=0;exitDy=0;" edge="1" parent="1" source="XagqqqfC-4Mj_eRLT8K7-6" target="XagqqqfC-4Mj_eRLT8K7-9">
          <mxGeometry width="100" height="100" relative="1" as="geometry">
            <mxPoint x="110" y="345" as="sourcePoint" />
            <mxPoint x="160" y="230" as="targetPoint" />
          </mxGeometry>
        </mxCell>
        <mxCell id="XagqqqfC-4Mj_eRLT8K7-20" value="" style="fontSize=12;html=1;endArrow=ERoneToMany;startArrow=ERmandOne;rounded=0;entryX=1;entryY=0.25;entryDx=0;entryDy=0;exitX=-0.003;exitY=0.328;exitDx=0;exitDy=0;exitPerimeter=0;" edge="1" parent="1" source="XagqqqfC-4Mj_eRLT8K7-5" target="XagqqqfC-4Mj_eRLT8K7-9">
          <mxGeometry width="100" height="100" relative="1" as="geometry">
            <mxPoint x="340" y="240" as="sourcePoint" />
            <mxPoint x="340" y="95" as="targetPoint" />
          </mxGeometry>
        </mxCell>
        <mxCell id="XagqqqfC-4Mj_eRLT8K7-21" value="" style="fontSize=12;html=1;endArrow=ERoneToMany;startArrow=ERmandOne;rounded=0;entryX=0.5;entryY=1;entryDx=0;entryDy=0;exitX=0.5;exitY=0;exitDx=0;exitDy=0;" edge="1" parent="1" source="XagqqqfC-4Mj_eRLT8K7-1">
          <mxGeometry width="100" height="100" relative="1" as="geometry">
            <mxPoint x="639.5" y="375" as="sourcePoint" />
            <mxPoint x="639.5" y="230" as="targetPoint" />
          </mxGeometry>
        </mxCell>
      </root>
    </mxGraphModel>
  </diagram>
</mxfile>
